<svg width="82" height="14" viewBox="0 0 82 14" fill="none" xmlns="http://www.w3.org/2000/svg">
<path d="M79.3522 0.552498H81.898V13.1325H79.3522V10.2425L79.365 10.2297C79.263 10.7284 79.1171 11.1747 78.9272 11.5685C78.7374 11.9595 78.5079 12.2896 78.2387 12.5587C77.9724 12.8279 77.6664 13.0333 77.3207 13.175C76.9779 13.3167 76.6039 13.3875 76.1987 13.3875C75.8276 13.3875 75.4762 13.3322 75.1447 13.2217C74.8132 13.1141 74.5072 12.9582 74.2267 12.7542C73.9462 12.5474 73.6927 12.2981 73.466 12.0062C73.2422 11.7144 73.0523 11.3857 72.8965 11.0202C72.7407 10.6519 72.6202 10.2524 72.5352 9.82175C72.4531 9.38825 72.412 8.92925 72.412 8.44475C72.412 7.96025 72.4531 7.50266 72.5352 7.072C72.6202 6.6385 72.7407 6.239 72.8965 5.8735C73.0523 5.508 73.2422 5.17933 73.466 4.8875C73.6927 4.59283 73.9462 4.3435 74.2267 4.1395C74.5072 3.9355 74.8132 3.77966 75.1447 3.672C75.4762 3.5615 75.8276 3.50625 76.1987 3.50625C76.6039 3.50625 76.9779 3.57708 77.3207 3.71875C77.6664 3.86041 77.9724 4.06583 78.2387 4.335C78.5079 4.60416 78.7374 4.93425 78.9272 5.32525C79.1171 5.71625 79.263 6.16108 79.365 6.65975L79.3522 6.65125V0.552498ZM79.3522 8.44475C79.3522 8.15291 79.3296 7.88233 79.2842 7.633C79.2417 7.38366 79.178 7.157 79.093 6.953C79.008 6.749 78.9017 6.56908 78.7742 6.41325C78.6496 6.25741 78.5051 6.12708 78.3407 6.02225C78.1764 5.91458 77.9937 5.83383 77.7925 5.78C77.5942 5.72616 77.3788 5.69925 77.1465 5.69925C76.7895 5.69925 76.475 5.75733 76.203 5.8735C75.9338 5.98966 75.7072 6.16391 75.523 6.39625C75.3417 6.62575 75.2042 6.91191 75.1107 7.25475C75.0201 7.59758 74.9747 7.99425 74.9747 8.44475C74.9747 8.89525 75.0215 9.29191 75.115 9.63475C75.2085 9.97758 75.3459 10.2652 75.5272 10.4975C75.7086 10.7298 75.9338 10.9041 76.203 11.0202C76.475 11.1364 76.7895 11.1945 77.1465 11.1945C77.3788 11.1945 77.5942 11.1676 77.7925 11.1137C77.9937 11.0599 78.1764 10.9806 78.3407 10.8757C78.5051 10.7681 78.6496 10.6363 78.7742 10.4805C78.9017 10.3218 79.008 10.1405 79.093 9.9365C79.178 9.7325 79.2417 9.50583 79.2842 9.2565C79.3296 9.00716 79.3522 8.73658 79.3522 8.44475Z" fill="#F9F9F9"/>
<path d="M71.5174 0.552498V13.1325H68.9717V0.552498H71.5174Z" fill="#F9F9F9"/>
<path d="M58.5829 8.44475C58.5829 7.94608 58.6353 7.47858 58.7401 7.04225C58.845 6.60308 58.9951 6.20075 59.1906 5.83525C59.389 5.46975 59.6284 5.1425 59.9089 4.8535C60.1894 4.5645 60.5053 4.32083 60.8566 4.1225C61.208 3.92133 61.5919 3.76833 62.0084 3.6635C62.4249 3.55866 62.8669 3.50625 63.3344 3.50625C63.8019 3.50625 64.2439 3.55866 64.6604 3.6635C65.0769 3.76833 65.4608 3.92133 65.8121 4.1225C66.1635 4.32083 66.4794 4.5645 66.7599 4.8535C67.0404 5.1425 67.2784 5.46975 67.4739 5.83525C67.6722 6.20075 67.8238 6.60308 67.9286 7.04225C68.0335 7.47858 68.0859 7.94608 68.0859 8.44475C68.0859 8.94342 68.0335 9.41233 67.9286 9.8515C67.8238 10.2878 67.6722 10.6902 67.4739 11.0585C67.2784 11.424 67.0404 11.7512 66.7599 12.0402C66.4794 12.3264 66.1635 12.5701 65.8121 12.7712C65.4608 12.9724 65.0769 13.1254 64.6604 13.2302C64.2439 13.3351 63.8019 13.3875 63.3344 13.3875C62.8669 13.3875 62.4249 13.3351 62.0084 13.2302C61.5919 13.1254 61.208 12.9724 60.8566 12.7712C60.5053 12.5701 60.1894 12.3264 59.9089 12.0402C59.6284 11.7512 59.389 11.424 59.1906 11.0585C58.9951 10.6902 58.845 10.2878 58.7401 9.8515C58.6353 9.41233 58.5829 8.94342 58.5829 8.44475ZM61.1456 8.44475C61.1456 8.87825 61.1938 9.265 61.2901 9.605C61.3893 9.94217 61.5324 10.2269 61.7194 10.4592C61.9092 10.6916 62.1401 10.8687 62.4121 10.9905C62.6841 11.1095 62.993 11.169 63.3386 11.169C63.6815 11.169 63.9889 11.1095 64.2609 10.9905C64.5329 10.8687 64.7624 10.6916 64.9494 10.4592C65.1364 10.2269 65.2781 9.94217 65.3744 9.605C65.4736 9.265 65.5231 8.87825 65.5231 8.44475C65.5231 8.01125 65.4736 7.62592 65.3744 7.28875C65.2781 6.94875 65.1364 6.664 64.9494 6.4345C64.7624 6.20217 64.5329 6.0265 64.2609 5.9075C63.9889 5.78567 63.6815 5.72475 63.3386 5.72475C62.993 5.72475 62.6841 5.78567 62.4121 5.9075C62.1401 6.0265 61.9092 6.20217 61.7194 6.4345C61.5324 6.664 61.3893 6.94875 61.2901 7.28875C61.1938 7.62592 61.1456 8.01125 61.1456 8.44475Z" fill="#F9F9F9"/>
<path d="M53.2094 13.1325V3.49775C53.2094 2.93108 53.2873 2.42958 53.4431 1.99325C53.6018 1.55692 53.8341 1.19142 54.1401 0.89675C54.4461 0.602084 54.8244 0.379667 55.2749 0.2295C55.7254 0.0764999 56.2453 0 56.8346 0C57.0925 0 57.3616 0.0141667 57.6421 0.0425C57.9255 0.0680001 58.2131 0.109084 58.5049 0.16575V2.12925C58.2811 2.08958 58.0671 2.05983 57.8631 2.04C57.662 2.01733 57.4736 2.006 57.2979 2.006C57.0146 2.006 56.7681 2.03717 56.5584 2.0995C56.3487 2.159 56.1759 2.2525 56.0399 2.38C55.9039 2.50467 55.8019 2.66333 55.7339 2.856C55.6687 3.04583 55.6361 3.26967 55.6361 3.5275V4.726H55.7551V13.1325H53.2094ZM58.5091 3.76125V5.78425H51.9471V3.76125H58.5091Z" fill="#F9F9F9"/>
<path d="M44.7112 8.61475C44.7112 9.03975 44.765 9.42225 44.8727 9.76225C44.9832 10.0994 45.1404 10.3856 45.3444 10.6207C45.5484 10.8559 45.7963 11.0372 46.0882 11.1647C46.3828 11.2894 46.7157 11.3517 47.0869 11.3517C47.3334 11.3517 47.5601 11.3234 47.7669 11.2667C47.9766 11.2072 48.165 11.1194 48.3322 11.0032C48.5022 10.8842 48.6523 10.7383 48.7827 10.5655C48.9158 10.3898 49.0277 10.1872 49.1184 9.95775H51.5112C51.3837 10.4904 51.1839 10.9692 50.9119 11.3942C50.6399 11.8192 50.3098 12.1791 49.9217 12.4737C49.5363 12.7684 49.0972 12.9937 48.6042 13.1495C48.114 13.3082 47.5842 13.3875 47.0147 13.3875C46.3063 13.3875 45.6617 13.2685 45.0809 13.0305C44.5001 12.7925 44.0014 12.4567 43.5849 12.0232C43.1712 11.5869 42.8497 11.0656 42.6202 10.4592C42.3935 9.85008 42.2802 9.17575 42.2802 8.43625C42.2802 7.70242 42.3921 7.03233 42.6159 6.426C42.8426 5.81967 43.1613 5.30117 43.5722 4.8705C43.983 4.437 44.476 4.10125 45.0512 3.86325C45.6263 3.62525 46.2638 3.50625 46.9637 3.50625C47.655 3.50625 48.2826 3.62383 48.8464 3.859C49.4131 4.09133 49.8962 4.42283 50.2957 4.8535C50.698 5.28133 51.0082 5.79842 51.2264 6.40475C51.4446 7.00825 51.5537 7.68116 51.5537 8.4235C51.5537 8.53683 51.5508 8.65158 51.5452 8.76775C51.5395 8.88108 51.531 8.99725 51.5197 9.11625H43.8569V7.54375H50.1767L49.1439 9.09075C49.1552 8.98025 49.1623 8.87116 49.1652 8.7635C49.1708 8.653 49.1737 8.54533 49.1737 8.4405C49.1737 7.95883 49.1255 7.53667 49.0292 7.174C48.9357 6.8085 48.7968 6.5025 48.6127 6.256C48.4285 6.0095 48.199 5.82392 47.9242 5.69925C47.6522 5.57175 47.3362 5.508 46.9764 5.508C46.6194 5.508 46.3007 5.57033 46.0202 5.695C45.7397 5.81967 45.5017 6.001 45.3062 6.239C45.1135 6.47417 44.9662 6.76317 44.8642 7.106C44.7622 7.44883 44.7112 7.837 44.7112 8.2705V8.61475Z" fill="#F9F9F9"/>
<path d="M35.0272 8.21525V13.1325H32.4814V3.76125H35.0272V6.62575L35.0144 6.6385C35.1108 6.13133 35.2539 5.68367 35.4437 5.2955C35.6364 4.9045 35.8729 4.57725 36.1534 4.31375C36.4339 4.05025 36.7555 3.8505 37.1182 3.7145C37.4809 3.57567 37.8818 3.50625 38.3209 3.50625C38.8253 3.50625 39.2715 3.59692 39.6597 3.77825C40.0479 3.95958 40.3723 4.22733 40.6329 4.5815C40.8936 4.93567 41.0919 5.37342 41.2279 5.89475C41.3639 6.41325 41.4319 7.01108 41.4319 7.68825V13.1325H38.8862V8.11325C38.8862 7.71375 38.8479 7.36525 38.7714 7.06775C38.6978 6.76742 38.5844 6.51808 38.4314 6.31975C38.2813 6.12142 38.0914 5.97267 37.8619 5.8735C37.6353 5.77433 37.3689 5.72475 37.0629 5.72475C36.8476 5.72475 36.6479 5.74883 36.4637 5.797C36.2795 5.84517 36.1109 5.91742 35.9579 6.01375C35.8078 6.10725 35.6746 6.22483 35.5584 6.3665C35.4423 6.50533 35.3445 6.66825 35.2652 6.85525C35.1887 7.03942 35.1292 7.24483 35.0867 7.4715C35.047 7.69817 35.0272 7.94608 35.0272 8.21525Z" fill="#F9F9F9"/>
<path d="M31.3916 3.76125V13.1325H28.8458V3.76125H31.3916ZM31.4171 0.552498V2.7795H28.8203V0.552498H31.4171Z" fill="#F9F9F9"/>
<path d="M27.7173 0.977501V13.1325H23.9093L19.1408 3.33625L19.162 3.332V13.1325H16.5865V0.977501H20.6495L25.163 10.1958L25.1418 10.2V0.977501H27.7173Z" fill="#F9F9F9"/>
<path d="M2.43002 10.1437H0.558808C0.250187 10.1437 0 10.3939 0 10.7025V12.5737C0 12.8823 0.250187 13.1325 0.558808 13.1325H2.43002C2.73864 13.1325 2.98883 12.8823 2.98883 12.5737V10.7025C2.98883 10.3939 2.73864 10.1437 2.43002 10.1437Z" fill="#F9F9F9"/>
<path d="M6.93563 10.1437H5.06442C4.7558 10.1437 4.50562 10.3939 4.50562 10.7025V12.5737C4.50562 12.8823 4.7558 13.1325 5.06442 13.1325H6.93563C7.24425 13.1325 7.49444 12.8823 7.49444 12.5737V10.7025C7.49444 10.3939 7.24425 10.1437 6.93563 10.1437Z" fill="#F9F9F9"/>
<path d="M11.4411 10.1437H9.56992C9.2613 10.1437 9.01111 10.3939 9.01111 10.7025V12.5737C9.01111 12.8823 9.2613 13.1325 9.56992 13.1325H11.4411C11.7497 13.1325 11.9999 12.8823 11.9999 12.5737V10.7025C11.9999 10.3939 11.7497 10.1437 11.4411 10.1437Z" fill="#F9F9F9"/>
<path d="M2.43002 5.63808H0.558808C0.250187 5.63808 0 5.88827 0 6.19689V8.0681C0 8.37672 0.250187 8.62691 0.558808 8.62691H2.43002C2.73864 8.62691 2.98883 8.37672 2.98883 8.0681V6.19689C2.98883 5.88827 2.73864 5.63808 2.43002 5.63808Z" fill="#F9F9F9"/>
<path d="M6.93563 5.63808H5.06442C4.7558 5.63808 4.50562 5.88827 4.50562 6.19689V8.0681C4.50562 8.37672 4.7558 8.62691 5.06442 8.62691H6.93563C7.24425 8.62691 7.49444 8.37672 7.49444 8.0681V6.19689C7.49444 5.88827 7.24425 5.63808 6.93563 5.63808Z" fill="#F9F9F9"/>
<path d="M11.4411 5.63808H9.56992C9.2613 5.63808 9.01111 5.88827 9.01111 6.19689V8.0681C9.01111 8.37672 9.2613 8.62691 9.56992 8.62691H11.4411C11.7497 8.62691 11.9999 8.37672 11.9999 8.0681V6.19689C11.9999 5.88827 11.7497 5.63808 11.4411 5.63808Z" fill="#F9F9F9"/>
<path d="M2.43002 1.1325H0.558808C0.250187 1.1325 0 1.38269 0 1.69131V3.56252C0 3.87114 0.250187 4.12133 0.558808 4.12133H2.43002C2.73864 4.12133 2.98883 3.87114 2.98883 3.56252V1.69131C2.98883 1.38269 2.73864 1.1325 2.43002 1.1325Z" fill="#00FF94"/>
<path d="M6.93563 1.1325H5.06442C4.7558 1.1325 4.50562 1.38269 4.50562 1.69131V3.56252C4.50562 3.87114 4.7558 4.12133 5.06442 4.12133H6.93563C7.24425 4.12133 7.49444 3.87114 7.49444 3.56252V1.69131C7.49444 1.38269 7.24425 1.1325 6.93563 1.1325Z" fill="#F9F9F9"/>
<path d="M11.4411 1.1325H9.56992C9.2613 1.1325 9.01111 1.38269 9.01111 1.69131V3.56252C9.01111 3.87114 9.2613 4.12133 9.56992 4.12133H11.4411C11.7497 4.12133 11.9999 3.87114 11.9999 3.56252V1.69131C11.9999 1.38269 11.7497 1.1325 11.4411 1.1325Z" fill="#F9F9F9"/>
</svg>
