<?xml version="1.0" encoding="UTF-8"?>
<svg id="Layer_2" data-name="Layer 2" xmlns="http://www.w3.org/2000/svg" viewBox="0 0 576.84 79.62">
  <defs>
    <style>
      .cls-1 {
        fill: #f9f9f9;
      }
    </style>
  </defs>
  <g id="Layer_1-2" data-name="Layer 1">
    <g>
      <polygon class="cls-1" points="231.52 56.24 209 5.81 182.1 5.81 182.1 78.11 199.9 78.11 199.9 23.89 223.93 78.11 249.31 78.11 249.31 5.81 231.52 5.81 231.52 56.24"/>
      <rect class="cls-1" x="255.13" y="3.29" width="17.8" height="13.55"/>
      <rect class="cls-1" x="255.23" y="22.37" width="17.59" height="55.74"/>
      <path class="cls-1" d="M328.29,26.96c-1.47-2.03-3.31-3.56-5.5-4.58-2.19-1.02-4.75-1.53-7.68-1.53-2.6,0-4.96.4-7.08,1.21-2.12.81-3.99,2.01-5.59,3.6-1.6,1.59-2.94,3.57-4.02,5.93-1.05,2.29-1.83,4.95-2.35,7.96v-17.18h-17.59v55.74h17.59v-28.79c0-1.45.1-2.78.29-4.01.19-1.22.48-2.33.86-3.31s.85-1.85,1.42-2.6c.56-.75,1.22-1.37,1.96-1.87.74-.5,1.56-.88,2.46-1.14.9-.26,1.89-.39,2.97-.39,1.53,0,2.87.27,4.01.8,1.14.53,2.09,1.34,2.84,2.41.76,1.08,1.32,2.42,1.69,4.03.37,1.61.56,3.5.56,5.67v29.2h17.59v-32.99c0-4.01-.37-7.53-1.11-10.57-.74-3.03-1.85-5.56-3.32-7.6Z"/>
      <path class="cls-1" d="M385.47,28.91c-2.44-2.55-5.36-4.53-8.78-5.94-3.42-1.41-7.23-2.11-11.43-2.11s-8.03.71-11.5,2.12-6.45,3.41-8.92,5.99c-2.48,2.58-4.4,5.67-5.76,9.26-1.37,3.6-2.05,7.59-2.05,11.97s.69,8.38,2.06,12c1.37,3.61,3.32,6.71,5.83,9.29s5.52,4.58,9.02,6,7.38,2.14,11.63,2.14c3.44,0,6.65-.47,9.64-1.42,2.99-.94,5.67-2.3,8.03-4.08,2.36-1.78,4.37-3.94,6.02-6.48s2.87-5.42,3.67-8.62h-16.23c-.5,1.18-1.1,2.21-1.77,3.08s-1.45,1.61-2.34,2.2-1.87,1.03-2.96,1.33-2.27.44-3.55.44c-1.96,0-3.7-.32-5.25-.97-1.54-.65-2.85-1.6-3.93-2.84-1.08-1.25-1.9-2.76-2.46-4.55-.33-1.04-.55-2.16-.69-3.36h39.17c.08-.69.14-1.39.18-2.1.03-.71.05-1.4.05-2.07,0-4.41-.67-8.42-2.01-12.03s-3.23-6.69-5.66-9.24ZM356.64,37.88c.99-1.24,2.22-2.18,3.69-2.82,1.47-.64,3.15-.96,5.06-.96s3.61.33,5.06,1c1.45.67,2.66,1.67,3.64,3.02s1.71,3.02,2.2,5.03c.12.51.23,1.04.32,1.59h-22.72c.12-.8.28-1.56.48-2.27.52-1.82,1.28-3.35,2.28-4.59Z"/>
      <path class="cls-1" d="M424.29,0c-3.62,0-6.83.45-9.62,1.34-2.79.89-5.13,2.21-7.03,3.96s-3.33,3.9-4.3,6.47c-.97,2.57-1.45,5.53-1.45,8.89v1.72h-7.03v13.75h7.03v41.99h17.59v-41.99h15.22v-13.75h-16.03v-1.47c0-1.28.18-2.39.54-3.32.36-.94.91-1.71,1.64-2.33.73-.61,1.67-1.07,2.81-1.38s2.48-.46,4.03-.46c1.01,0,2.11.06,3.3.16,1.19.11,2.42.27,3.7.49V.99c-1.8-.32-3.59-.56-5.36-.73-1.77-.17-3.46-.25-5.06-.25Z"/>
      <path class="cls-1" d="M489.05,34.67c-1.2-2.18-2.65-4.13-4.35-5.84s-3.62-3.16-5.76-4.34c-2.14-1.18-4.47-2.08-6.98-2.7-2.51-.62-5.17-.94-7.96-.94s-5.45.31-7.96.94-4.84,1.53-6.98,2.7c-2.14,1.18-4.06,2.62-5.76,4.34s-3.15,3.66-4.35,5.84c-1.2,2.18-2.12,4.58-2.75,7.19-.64,2.61-.96,5.4-.96,8.37s.32,5.76.96,8.38c.64,2.62,1.56,5.02,2.75,7.19s2.65,4.12,4.36,5.83c1.71,1.71,3.63,3.16,5.76,4.35,2.13,1.19,4.45,2.09,6.96,2.72,2.51.62,5.17.94,7.96.94s5.47-.31,7.98-.94c2.5-.62,4.82-1.53,6.95-2.72,2.13-1.19,4.05-2.64,5.76-4.35,1.71-1.71,3.16-3.65,4.36-5.83,1.2-2.17,2.11-4.57,2.75-7.19s.96-5.41.96-8.38-.32-5.78-.96-8.38-1.56-5-2.75-7.18ZM474.29,56.34c-.49,1.77-1.2,3.26-2.14,4.47-.94,1.21-2.09,2.13-3.45,2.74-1.36.62-2.93.92-4.7.92s-3.31-.31-4.68-.94c-1.37-.62-2.52-1.54-3.46-2.74-.94-1.21-1.66-2.69-2.15-4.46-.49-1.77-.73-3.81-.73-6.12s.24-4.35.73-6.12c.49-1.77,1.2-3.26,2.15-4.46.94-1.2,2.1-2.11,3.46-2.73s2.92-.92,4.68-.92,3.34.31,4.7.92c1.37.62,2.52,1.53,3.45,2.73.93,1.21,1.65,2.69,2.14,4.46.49,1.77.73,3.81.73,6.12s-.25,4.35-.73,6.12Z"/>
      <rect class="cls-1" x="497.31" y="3.29" width="17.59" height="74.82"/>
      <path class="cls-1" d="M559.25,3.29v35.98c-.54-2.93-1.31-5.53-2.33-7.78-1.04-2.32-2.32-4.26-3.83-5.84-1.51-1.58-3.24-2.77-5.18-3.58-1.95-.81-4.11-1.21-6.48-1.21-2.16,0-4.2.32-6.13.97s-3.71,1.58-5.33,2.78c-1.63,1.21-3.09,2.68-4.39,4.41-1.3,1.74-2.4,3.69-3.3,5.86-.9,2.17-1.6,4.55-2.08,7.13-.49,2.58-.73,5.32-.73,8.21s.24,5.64.73,8.22c.49,2.58,1.18,4.96,2.08,7.14.9,2.18,2,4.14,3.3,5.88,1.3,1.74,2.76,3.21,4.39,4.41,1.63,1.21,3.4,2.13,5.33,2.78,1.93.65,3.97.97,6.13.97,2.36,0,4.52-.4,6.47-1.21,1.96-.81,3.69-2,5.2-3.58,1.51-1.58,2.78-3.53,3.83-5.85,1.02-2.26,1.79-4.86,2.33-7.8v16.92h17.59V3.29h-17.59ZM557.96,58.09c-.42,1.06-.95,2-1.58,2.81-.63.81-1.36,1.48-2.17,2.02-.82.54-1.73.95-2.74,1.24-1.01.29-2.12.43-3.31.43-1.8,0-3.39-.3-4.75-.91s-2.51-1.51-3.42-2.71c-.92-1.2-1.61-2.69-2.07-4.49-.46-1.79-.7-3.88-.7-6.26s.23-4.46.7-6.24c.46-1.79,1.15-3.28,2.06-4.47.91-1.2,2.05-2.1,3.42-2.7,1.37-.61,2.96-.91,4.76-.91,1.2,0,2.3.14,3.31.43,1.01.29,1.92.7,2.74,1.24.82.54,1.54,1.21,2.17,2.02.63.81,1.16,1.74,1.58,2.81.42,1.06.74,2.25.96,3.55.22,1.31.33,2.73.33,4.28s-.11,2.98-.33,4.3-.54,2.5-.96,3.56Z"/>
      <path class="cls-1" d="M0,28.8v49.31h68.88V5.93H22.87L0,28.8ZM55.66,64.25H22.58L55.66,31.16v33.08ZM48.34,19.78L13.23,54.9v-20.63l14.49-14.49h20.63Z"/>
      <path class="cls-1" d="M80.46,5.93v19.36l21.41,21.41h34.24v17.56h-42.42v-10.11h-13.23v23.97h68.88V28.8l-22.87-22.87h-46.01ZM107.34,33.46l-13.66-13.66v-.03h27.92l13.68,13.68h-27.95Z"/>
    </g>
  </g>
</svg>