<?xml version="1.0" encoding="UTF-8"?>
<svg id="Layer_2" data-name="Layer 2" xmlns="http://www.w3.org/2000/svg" viewBox="0 0 1000 1000">
  <defs>
    <style>
      .cls-1 {
        fill: #f9f9f9;
      }
    </style>
  </defs>
  <g id="Layer_1-2" data-name="Layer 1">
    <rect width="1000" height="1000" rx="148.36" ry="148.36"/>
    <g>
      <g>
        <path class="cls-1" d="M261.47,143.59l-105.33,105.33v227.07h317.19V143.59h-211.86ZM283.77,207.38h95l-161.71,161.71v-95l66.71-66.71ZM260.12,412.16l152.35-152.35v152.35h-152.35Z"/>
        <path class="cls-1" d="M526.66,143.59v89.14s98.59,98.59,98.59,98.59h157.69v80.84h-195.37v-46.57s-60.91,0-60.91,0v110.4s317.19,0,317.19,0v-227.07s-105.33-105.33-105.33-105.33h-211.86ZM587.58,207.51v-.13h128.57s63.02,63.02,63.02,63.02h-128.7s-62.89-62.89-62.89-62.89Z"/>
      </g>
      <g>
        <path class="cls-1" d="M738.53,856.41l105.33-105.33v-227.07h-317.19v332.4h211.86ZM716.23,792.62h-95l161.71-161.71v95l-66.71,66.71ZM739.88,587.84l-152.35,152.35v-152.35h152.35Z"/>
        <path class="cls-1" d="M473.34,856.41v-89.14s-98.59-98.59-98.59-98.59h-157.69v-80.84h195.37v46.57s60.91,0,60.91,0v-110.4s-317.19,0-317.19,0v227.07s105.33,105.33,105.33,105.33h211.86ZM412.42,792.49v.13h-128.57s-63.02-63.02-63.02-63.02h128.7s62.89,62.89,62.89,62.89Z"/>
      </g>
    </g>
  </g>
</svg>